<?xml version="1.0" standalone="no"?>
<!DOCTYPE svg PUBLIC "-//W3C//DTD SVG 20010904//EN"
 "http://www.w3.org/TR/2001/REC-SVG-20010904/DTD/svg10.dtd">
<svg version="1.0" xmlns="http://www.w3.org/2000/svg"
 width="380.000000pt" height="233.000000pt" viewBox="0 0 380.000000 233.000000"
 preserveAspectRatio="xMidYMid meet">

<g transform="translate(0.000000,233.000000) scale(0.100000,-0.100000)"
fill="#000000" stroke="none">
<path d="M5 2318 c-3 -7 -4 -530 -3 -1163 l3 -1150 1898 -3 1897 -2 -2 1162
-3 1163 -1893 3 c-1509 2 -1894 0 -1897 -10z m2411 -838 c1 -47 2 -91 3 -97 1
-10 34 -13 131 -13 154 0 155 -1 148 -111 -8 -104 -77 -202 -175 -245 -58 -26
-177 -24 -230 4 -111 58 -163 141 -163 261 0 86 18 135 70 195 47 53 139 97
195 93 18 -2 20 -10 21 -87z m682 75 c75 -23 131 -70 169 -144 141 -271 -186
-543 -429 -358 -86 66 -126 176 -103 288 19 98 75 165 171 204 69 28 120 31
192 10z m-2070 -19 c6 -27 -8 -35 -67 -39 -31 -3 -57 -10 -62 -18 -5 -8 -9
-113 -9 -235 0 -157 -3 -223 -12 -232 -16 -16 -210 -16 -226 0 -9 9 -12 75
-12 234 0 256 1 254 -81 254 -51 0 -68 13 -55 45 5 13 40 15 263 13 242 -3
258 -4 261 -22z m220 -8 c11 -18 52 -96 93 -173 40 -77 97 -184 126 -239 29
-54 50 -103 47 -107 -3 -5 -45 -9 -95 -9 -93 0 -92 0 -137 54 -10 13 -35 16
-125 16 -62 0 -117 -4 -122 -8 -6 -4 -18 -19 -28 -34 -13 -20 -26 -28 -47 -28
-16 0 -31 4 -34 8 -4 8 226 459 270 530 19 30 29 28 52 -10z m558 -44 c112
-42 211 -74 219 -71 10 4 15 26 17 74 3 65 4 68 28 68 l25 0 3 -264 c2 -276 0
-291 -41 -291 -12 0 -86 24 -166 54 -242 90 -270 99 -285 93 -11 -4 -16 -25
-18 -74 -3 -65 -4 -68 -28 -68 l-25 0 -3 264 c-3 280 -1 291 45 291 13 0 116
-34 229 -76z m-224 -724 c17 -17 28 -34 24 -37 -3 -3 -15 6 -27 20 -16 22 -29
27 -64 27 -35 0 -48 -5 -64 -26 -47 -59 -11 -154 57 -154 34 0 77 31 85 60 5
18 0 20 -39 20 -24 0 -44 5 -44 10 0 11 100 14 101 3 0 -5 2 -27 5 -50 2 -23
-1 -45 -6 -48 -6 -3 -10 4 -10 16 l0 22 -22 -21 c-68 -63 -168 -10 -168 89 0
22 10 41 34 65 46 46 94 47 138 4z m548 9 c0 -5 -4 -9 -10 -9 -5 0 -10 7 -10
16 0 8 5 12 10 9 6 -3 10 -10 10 -16z m130 12 c0 -5 -7 -14 -15 -21 -16 -14
-18 -10 -9 14 6 17 24 22 24 7z m-290 -31 c0 -16 5 -19 23 -16 13 2 39 0 58
-4 30 -7 28 -8 -23 -9 l-58 -1 0 -53 c0 -57 12 -77 45 -77 27 0 45 18 45 47 0
13 5 23 10 23 21 0 9 -49 -16 -69 -34 -27 -50 -26 -79 4 -22 21 -25 33 -25
100 0 43 4 75 10 75 6 0 10 -9 10 -20z m-216 -32 c14 -13 26 -32 28 -43 3 -18
-3 -20 -64 -23 -74 -3 -87 -17 -46 -46 31 -22 58 -20 85 6 13 12 23 17 23 10
0 -16 -50 -52 -72 -52 -29 0 -78 54 -78 85 0 32 49 85 79 85 11 0 31 -10 45
-22z m157 1 c25 -25 17 -39 -10 -15 -24 22 -75 18 -79 -6 -2 -12 5 -19 25 -23
78 -16 106 -59 59 -90 -18 -12 -35 -15 -53 -10 -34 8 -65 34 -57 47 3 5 13 0
21 -12 11 -16 23 -20 51 -18 32 3 37 7 37 27 0 20 -7 26 -44 35 -58 14 -75 40
-42 67 30 25 66 24 92 -2z m370 -8 c17 -18 29 -40 29 -56 0 -32 -50 -85 -80
-85 -27 0 -80 52 -80 79 0 49 37 89 83 90 10 1 32 -12 48 -28z m157 13 c19
-13 22 -23 20 -82 l-1 -67 -6 60 c-7 73 -14 85 -50 85 -40 0 -51 -17 -51 -82
0 -32 -4 -58 -10 -58 -6 0 -10 32 -10 76 0 60 3 75 13 71 8 -3 20 -1 28 4 21
13 42 11 67 -7z m-308 -69 c0 -43 -4 -75 -10 -75 -6 0 -10 32 -10 75 0 43 4
75 10 75 6 0 10 -32 10 -75z"/>
<path d="M1667 702 c-9 -10 -17 -22 -17 -25 0 -4 28 -7 61 -7 l61 0 -14 23
c-20 29 -68 34 -91 9z"/>
<path d="M2187 702 c-22 -25 -21 -75 1 -95 40 -36 102 -7 102 48 0 56 -67 86
-103 47z"/>
</g>
</svg>
