<?xml version="1.0" encoding="UTF-8"?>
<svg xmlns="http://www.w3.org/2000/svg" xmlns:xlink="http://www.w3.org/1999/xlink" width="96px" height="96px" viewBox="0 0 96 96" version="1.1">
<g id="surface1">
<path style=" stroke:none;fill-rule:nonzero;fill:rgb(0%,0%,0%);fill-opacity:1;" d="M 0.125 0.496094 C 0.0507812 0.785156 0.0234375 22.351562 0.0507812 48.453125 L 0.125 95.875 L 48.074219 96 L 96 96.082031 L 95.949219 48.164062 L 95.875 0.207031 L 48.050781 0.0820312 C 9.929688 0 0.203125 0.0820312 0.125 0.496094 Z M 61.035156 35.050781 C 61.0625 36.988281 61.085938 38.804688 61.113281 39.050781 C 61.136719 39.464844 61.96875 39.585938 64.421875 39.585938 C 68.3125 39.585938 68.335938 39.628906 68.160156 44.164062 C 67.957031 48.453125 66.214844 52.496094 63.738281 54.269531 C 62.273438 55.339844 59.265625 55.257812 57.929688 54.101562 C 55.125 51.710938 53.808594 48.289062 53.808594 43.339844 C 53.808594 39.792969 54.265625 37.773438 55.578125 35.300781 C 56.765625 33.113281 59.089844 31.300781 60.503906 31.464844 C 60.960938 31.546875 61.011719 31.875 61.035156 35.050781 Z M 78.265625 31.957031 C 80.160156 32.90625 81.574219 34.84375 82.535156 37.898438 C 86.097656 49.070312 77.835938 60.289062 71.695312 52.660156 C 69.523438 49.9375 68.515625 45.402344 69.09375 40.785156 C 69.574219 36.742188 70.988281 33.980469 73.414062 32.371094 C 75.15625 31.214844 76.445312 31.09375 78.265625 31.957031 Z M 25.96875 32.742188 C 26.121094 33.855469 25.769531 34.1875 24.277344 34.351562 C 23.496094 34.472656 22.839844 34.761719 22.710938 35.09375 C 22.585938 35.421875 22.484375 39.753906 22.484375 44.785156 C 22.484375 51.257812 22.410156 53.980469 22.179688 54.351562 C 21.777344 55.011719 16.875 55.011719 16.472656 54.351562 C 16.246094 53.980469 16.167969 51.257812 16.167969 44.699219 C 16.167969 34.144531 16.195312 34.226562 14.121094 34.226562 C 12.832031 34.226562 12.402344 33.691406 12.734375 32.371094 C 12.859375 31.835938 13.742188 31.753906 19.375 31.835938 C 25.492188 31.957031 25.894531 32 25.96875 32.742188 Z M 31.527344 33.070312 C 31.804688 33.8125 32.84375 37.03125 33.878906 40.207031 C 34.886719 43.382812 36.328125 47.792969 37.0625 50.0625 C 37.792969 52.289062 38.324219 54.308594 38.25 54.472656 C 38.171875 54.679688 37.113281 54.84375 35.847656 54.84375 C 33.5 54.84375 33.523438 54.84375 32.386719 52.617188 C 32.132812 52.082031 31.503906 51.957031 29.230469 51.957031 C 27.664062 51.957031 26.273438 52.125 26.148438 52.289062 C 25.996094 52.453125 25.691406 53.070312 25.441406 53.691406 C 25.113281 54.515625 24.78125 54.84375 24.253906 54.84375 C 23.847656 54.84375 23.46875 54.679688 23.394531 54.515625 C 23.292969 54.1875 29.101562 35.585938 30.214844 32.660156 C 30.695312 31.421875 30.949219 31.503906 31.527344 33.070312 Z M 45.625 34.886719 C 48.453125 36.617188 50.957031 37.9375 51.15625 37.8125 C 51.410156 37.648438 51.535156 36.742188 51.585938 34.761719 C 51.664062 32.082031 51.6875 31.957031 52.292969 31.957031 L 52.925781 31.957031 L 53.003906 42.84375 C 53.050781 54.226562 53.003906 54.84375 51.964844 54.84375 C 51.664062 54.84375 49.792969 53.855469 47.773438 52.617188 C 41.660156 48.90625 40.953125 48.535156 40.574219 48.785156 C 40.292969 48.949219 40.167969 49.8125 40.117188 51.835938 C 40.042969 54.515625 40.015625 54.640625 39.410156 54.640625 L 38.777344 54.640625 L 38.703125 43.753906 C 38.628906 32.207031 38.679688 31.753906 39.839844 31.753906 C 40.167969 31.753906 42.769531 33.15625 45.625 34.886719 Z M 39.964844 64.742188 C 40.394531 65.441406 40.671875 66.144531 40.574219 66.269531 C 40.496094 66.390625 40.195312 66.019531 39.890625 65.441406 C 39.484375 64.535156 39.15625 64.328125 38.273438 64.328125 C 37.390625 64.328125 37.0625 64.535156 36.65625 65.402344 C 35.46875 67.835938 36.378906 71.753906 38.097656 71.753906 C 38.957031 71.753906 40.042969 70.472656 40.246094 69.277344 C 40.371094 68.535156 40.246094 68.453125 39.257812 68.453125 C 38.652344 68.453125 38.148438 68.246094 38.148438 68.042969 C 38.148438 67.585938 40.671875 67.464844 40.699219 67.917969 C 40.699219 68.125 40.75 69.03125 40.824219 69.980469 C 40.875 70.929688 40.800781 71.835938 40.671875 71.957031 C 40.523438 72.082031 40.421875 71.792969 40.421875 71.300781 L 40.421875 70.390625 L 39.867188 71.257812 C 38.148438 73.855469 35.621094 71.671875 35.621094 67.585938 C 35.621094 66.679688 35.875 65.898438 36.480469 64.90625 C 37.640625 63.011719 38.855469 62.96875 39.964844 64.742188 Z M 53.808594 64.371094 C 53.808594 64.578125 53.710938 64.742188 53.558594 64.742188 C 53.429688 64.742188 53.304688 64.453125 53.304688 64.082031 C 53.304688 63.753906 53.429688 63.585938 53.558594 63.710938 C 53.710938 63.835938 53.808594 64.125 53.808594 64.371094 Z M 57.09375 63.875 C 57.09375 64.082031 56.917969 64.453125 56.714844 64.742188 C 56.3125 65.320312 56.261719 65.15625 56.488281 64.164062 C 56.640625 63.464844 57.09375 63.257812 57.09375 63.875 Z M 49.769531 65.15625 C 49.769531 65.8125 49.894531 65.9375 50.347656 65.8125 C 50.679688 65.730469 51.335938 65.8125 51.816406 65.980469 C 52.574219 66.269531 52.523438 66.308594 51.234375 66.351562 L 49.769531 66.390625 L 49.769531 68.578125 C 49.769531 70.929688 50.070312 71.753906 50.90625 71.753906 C 51.585938 71.753906 52.042969 71.011719 52.042969 69.8125 C 52.042969 69.277344 52.167969 68.867188 52.292969 68.867188 C 52.824219 68.867188 52.523438 70.886719 51.890625 71.710938 C 51.03125 72.824219 50.628906 72.785156 49.894531 71.546875 C 49.339844 70.679688 49.261719 70.1875 49.261719 67.421875 C 49.261719 65.648438 49.363281 64.328125 49.515625 64.328125 C 49.667969 64.328125 49.769531 64.699219 49.769531 65.15625 Z M 44.3125 66.472656 C 44.664062 67.011719 44.96875 67.792969 45.019531 68.246094 C 45.09375 68.988281 44.941406 69.070312 43.402344 69.195312 C 41.53125 69.320312 41.203125 69.898438 42.238281 71.09375 C 43.023438 72 43.707031 71.917969 44.386719 70.84375 C 44.714844 70.351562 44.96875 70.144531 44.96875 70.433594 C 44.96875 71.09375 43.707031 72.578125 43.148438 72.578125 C 42.417969 72.578125 41.179688 70.351562 41.179688 69.070312 C 41.179688 67.753906 42.417969 65.566406 43.175781 65.566406 C 43.453125 65.566406 43.957031 65.980469 44.3125 66.472656 Z M 48.277344 66.433594 C 48.910156 67.464844 48.707031 68.042969 48.023438 67.050781 C 47.417969 66.144531 46.128906 66.308594 46.03125 67.300781 C 45.980469 67.792969 46.15625 68.082031 46.660156 68.246094 C 48.632812 68.90625 49.339844 70.679688 48.152344 71.957031 C 47.695312 72.453125 47.265625 72.578125 46.8125 72.371094 C 45.953125 72.042969 45.171875 70.96875 45.371094 70.433594 C 45.449219 70.226562 45.699219 70.433594 45.902344 70.929688 C 46.179688 71.585938 46.484375 71.753906 47.191406 71.671875 C 48 71.546875 48.125 71.382812 48.125 70.558594 C 48.125 69.730469 47.949219 69.484375 47.015625 69.113281 C 45.550781 68.535156 45.121094 67.464844 45.953125 66.351562 C 46.710938 65.320312 47.621094 65.359375 48.277344 66.433594 Z M 57.625 66.761719 C 58.054688 67.503906 58.359375 68.414062 58.359375 69.070312 C 58.359375 70.390625 57.09375 72.578125 56.335938 72.578125 C 55.65625 72.578125 54.316406 70.433594 54.316406 69.320312 C 54.316406 67.300781 55.25 65.648438 56.414062 65.609375 C 56.664062 65.566406 57.222656 66.101562 57.625 66.761719 Z M 61.589844 66.226562 C 62.070312 66.761719 62.148438 67.175781 62.097656 69.609375 L 62.070312 72.371094 L 61.921875 69.898438 C 61.742188 66.886719 61.566406 66.390625 60.65625 66.390625 C 59.644531 66.390625 59.367188 67.09375 59.367188 69.773438 C 59.367188 71.09375 59.265625 72.164062 59.117188 72.164062 C 58.964844 72.164062 58.863281 70.84375 58.863281 69.03125 C 58.863281 66.558594 58.9375 65.9375 59.191406 66.101562 C 59.394531 66.226562 59.695312 66.144531 59.898438 65.9375 C 60.429688 65.402344 60.960938 65.484375 61.589844 66.226562 Z M 53.808594 69.070312 C 53.808594 70.84375 53.710938 72.164062 53.558594 72.164062 C 53.40625 72.164062 53.304688 70.84375 53.304688 69.070312 C 53.304688 67.300781 53.40625 65.980469 53.558594 65.980469 C 53.710938 65.980469 53.808594 67.300781 53.808594 69.070312 Z M 53.808594 69.070312 "/>
<path style=" stroke:none;fill-rule:nonzero;fill:rgb(0%,0%,0%);fill-opacity:1;" d="M 42.113281 67.132812 C 41.886719 67.546875 41.683594 68.042969 41.683594 68.164062 C 41.683594 68.328125 42.390625 68.453125 43.226562 68.453125 L 44.765625 68.453125 L 44.414062 67.503906 C 43.90625 66.308594 42.695312 66.101562 42.113281 67.132812 Z M 42.113281 67.132812 "/>
<path style=" stroke:none;fill-rule:nonzero;fill:rgb(0%,0%,0%);fill-opacity:1;" d="M 55.25 67.132812 C 54.695312 68.164062 54.71875 70.226562 55.277344 71.050781 C 56.285156 72.535156 57.851562 71.339844 57.851562 69.070312 C 57.851562 66.761719 56.160156 65.527344 55.25 67.132812 Z M 55.25 67.132812 "/>
</g>
</svg>
